<?xml version="1.0" encoding="utf-8"?>
<!-- Generator: Adobe Illustrator 16.0.0, SVG Export Plug-In . SVG Version: 6.00 Build 0)  -->
<!DOCTYPE svg PUBLIC "-//W3C//DTD SVG 1.1//EN" "http://www.w3.org/Graphics/SVG/1.1/DTD/svg11.dtd">
<svg version="1.1" id="Layer_41" xmlns="http://www.w3.org/2000/svg" xmlns:xlink="http://www.w3.org/1999/xlink" x="0px" y="0px"
	 width="350px" height="373px" viewBox="0 0 350 373" enable-background="new 0 0 350 373" xml:space="preserve">
<g id="allMap">
	<g id="junnam_0057" fill="#FFFFFF" stroke="#C5C5C6" stroke-miterlimit="10" stroke-width="2">
		<path d="M178.646,265.316c0,1.89-0.93,4.64-0.89,6.68
			c-1.28,0.03-2.18,0.57-2.23,2.07c-0.07,2.26,0.62,2.25-0.75,4s-3.63,3.08-6.5,1.25c-2.75-1.75-6.63-5-8.25-2.38
			c-1.62,2.63-2,4.63-0.38,6.63c1.63,2,2.76,6.13,0.63,7.37c-2.13,1.26-5.5,2.76-9,2.38s-6.63-0.25-8.87,2.5
			c-2.26,2.75-2.63,4-4.5,4.75c-1.88,0.75-5.38,0.13-7.5-0.87c-2.13-1-7.88-1.13-12.26-0.76c-4.37,0.38-6.87-0.87-9.37-2.74
			c-2.5-1.88-8.75-2.5-11.63-1.88c-2.87,0.62-2,2.25-2.12,3.88c-0.12,1.62-1.5,4-5.12,5.74c-3.63,1.76-5,4.38-8.88,4.88
			s-12.22,0.53-9.5-7.25c2.62-7.5,3.75-8.37,5.75-11s6.25-4.63,3.13-8.87c-3.13-4.26-6.63-5.63-5.88-12.76
			c0.31-2.91,0.12-6,4.12-8.74c4-2.76,6.13-5.5,3.38-8.38s-2.62-8.12,2.25-8.25s8.75,0.5,13.5-6.13c4.2-5.86,4.3-7.32,4.53-11.47
			c2,1.22,4.53,4.319,5.72,7.1c1.5,3.5,5.88,2.37,7.88-1.37c2-3.76,4.5-5.26,7.24-6.76c2.76-1.5,5.76-0.5,9.38,5s5.25,4.26,7.12,4.13
			c1.88-0.13,5.76-3.13,7.26-1.63s2.87,2.13,4.87,1.5c2-0.62,2.63-2.87,9.5-2.12c0.76,0.08,1.43,0.11,2.02,0.09
			c0.43,0.96,0.48,1.351,0.48,2.91c0,2.5,1.25,2.5,2.75,5.25s2.75,6.87,2,9.13c-0.75,2.24-0.25,4.12,2.38,3.24
			c2.62-0.87,6.87-1.24,6.5,3.26C177.025,260.196,178.646,262.816,178.646,265.316z M132.646,245.816c3.63-3.62-0.5-7.5-3.87-8.62
			c-3.37-1.13-3.87-0.13-6.87-0.38s-5.34-0.69-7.76,1.12c-1,0.76-1.24,1.88-1.24,3.63s2,5.87,6.62,9.5
			S129.025,249.437,132.646,245.816z"/>
		<text fill="#000000" stroke="none" transform="matrix(1 0 0 1 111.8311 274.0947)" font-family="'NanumGothic'" font-size="11">전남</text>
	</g>
	<g id="junbuk_0054" fill="#FFFFFF" stroke="#C5C5C6" stroke-miterlimit="10" stroke-width="2">
		<path d="M176.456,189.086c0.62,0.591,1.1,1.25,1.32,1.98
			c0.71,2.35,1.77,4.12-0.29,6.33c-0.45,0.49-1.05,1-1.84,1.54c-4.37,3-5.37,4.13-7.62,4.63s-4.62,5.13-3.25,7.13s3,5.87,2.25,9
			c-0.75,3.12,0.38,5.62,0.5,7.37c0.11,1.56,0.51,4.7-4.23,4.84c-0.59,0.021-1.26-0.01-2.02-0.09c-6.87-0.75-7.5,1.5-9.5,2.12
			c-2,0.63-3.37,0-4.87-1.5s-5.38,1.5-7.26,1.63c-1.87,0.13-3.5,1.37-7.12-4.13s-6.62-6.5-9.38-5c-2.74,1.5-5.24,3-7.24,6.76
			c-2,3.74-6.38,4.87-7.88,1.37c-1.19-2.78-3.72-5.88-5.72-7.1c0.02-0.54,0.06-1.12,0.1-1.771c0.37-5.63-0.88-6.76,2.5-10.38
			c3.37-3.62,5-3.75,6.5-6.75s0.74-4.25-0.63-7.63c-1.37-3.37-3.75-5.24-3.75-7.12s0.88-2.75,3-2.38c1.76,0.32,5.27,1.58,4.58-0.311
			c1.96,0.521,3.8,0.74,5.42,0.07c2.12-0.88,7-2.76,7.5-6c0.5-3.26,7-8.38,6.75-3.5c-0.25,4.87,1.13,4.87,1,7
			c-0.13,2.12,1,3.37,3.87,0.62c2.88-2.75,4.88-3.5,6.76-4.62c1.87-1.13,5.12-1.38,6.87,1.24c1.75,2.63,4,6.5,5.75,6.13
			s3.5-0.25,5.12-1.87c0.63-0.63,1.42-1.229,2.27-1.7c0,0,0,0,0.01,0c1.32-0.729,2.81-1.16,4.1-0.93
			C171.605,186.347,174.646,187.387,176.456,189.086z"/>
		<text fill="#000000" stroke="none" transform="matrix(1 0 0 1 129.8311 211.0947)" font-family="'NanumGothic'" font-size="11">전북</text>
	</g>
	<g id="gwangju_0061" fill="#FFFFFF" stroke="#C5C5C6" stroke-miterlimit="10" stroke-width="2">
		<path d="M128.775,237.196c3.37,1.12,7.5,5,3.87,8.62
			c-3.62,3.62-8.5,8.88-13.12,5.25s-6.62-7.75-6.62-9.5s0.24-2.87,1.24-3.63c2.42-1.811,4.76-1.37,7.76-1.12
			S125.405,236.066,128.775,237.196z"/>
		<text fill="#000000" stroke="none" transform="matrix(1 0 0 1 113.8311 247.0947)" font-family="'NanumGothic'" font-size="11">광주</text>
	</g>
	<g id="gyungnam_0050" fill="#FFFFFF" stroke="#C5C5C6" stroke-miterlimit="10" stroke-width="2">
		<path d="M214.615,216.126c2.2,0.7,4.7,1.311,6.66,1.311
			c3.87,0,5.87,1.5,8.13-0.37c1.42-1.18,3.19-2.47,5.74-3.32c0.86,2.04,0.11,4.36,1.88,5.82c2.12,1.75,3.75,4.5,5.5,5.25
			c1.08,0.46,1.4,1.16,2.21,1.53c-2.22,4.01-8.729,10.56-11.33,11.47c-2.88,1-5.38,1.75-4.88,4.25s0.25,4.37-2.88,3.25
			c-3.12-1.12-7.87,0.12-9.37,1s-5.63,2.38-5.87,5.88c-0.26,3.5,0.5,7.37,3.37,4.62s7.63-3.62,8.75-5.25s4.25-1.5,5.88-0.37
			c0.931,0.64,1.7,1.78,2.181,2.88c-1.08,0.79-2.031,1.5-2.561,1.74c-1.38,0.62-3.25-0.38-4.38-0.5c-1.12-0.12-1.12,0.88,0,2.62
			c1.13,1.76,2.88,5,0.38,8.5c-1.5,2.1-3.75,5.63-8.75,6.13c-2.75,0.27-5,1.75-8.5-1.37c-2.07-1.85-4.37-4.5-9.5-3.88
			c-0.9,0.11-5,1.38-6.25,1.38s-1.38,0.5-1.75,2.62s-1.25,3.62-4.5,2.5c-2-0.69-4.98-1.9-7.02-1.82c-0.04-2.04,0.89-4.79,0.89-6.68
			c0-2.5-1.62-5.12-1.24-9.62c0.37-4.5-3.88-4.13-6.5-3.26c-2.63,0.88-3.13-1-2.38-3.24c0.75-2.26-0.5-6.38-2-9.13
			s-2.75-2.75-2.75-5.25c0-1.56-0.05-1.95-0.48-2.91c4.74-0.14,4.34-3.28,4.23-4.84c-0.12-1.75-1.25-4.25-0.5-7.37
			c0.75-3.13-0.88-7-2.25-9s1-6.63,3.25-7.13s3.25-1.63,7.62-4.63c0.79-0.54,1.39-1.05,1.84-1.54c2.63,0.83,6.271,1.99,7.79,3.8
			c2,2.37,6.5,7.5,8.37,9.37c1.88,1.87,2.38,2.37,4.76,2c1.011-0.16,2.91-0.05,4.899,0.21c2.691,0.33,5.531,0.91,6.471,1.42
			C210.575,214.637,212.455,215.416,214.615,216.126z"/>
		<text fill="#000000" stroke="none" transform="matrix(1 0 0 1 190.8311 236.0947)" font-family="'NanumGothic'" font-size="11">경남</text>
	</g>
	<g id="gyungbuk_0036" fill="#FFFFFF" stroke="#C5C5C6" stroke-miterlimit="10" stroke-width="2">
		<path d="M289.025,102.566c0,1-0.88,1.63-1.5,1.63
			s-0.75-1-0.38-1.88C287.575,101.326,289.025,101.566,289.025,102.566z"/>
		<path d="M281.025,91.196c1.12,1.5,3,6.5,0.88,8.74
			c-2.13,2.26-6,3.38-7.26,0.5c-1.24-2.87-4.62-2.12-4.87-8.24c-0.05-1.13,2.5-1.63,4.25-1.76c1.75-0.12,1.88-0.62,3.38-1.24
			C278.905,88.566,279.905,89.696,281.025,91.196z"/>
		<path d="M235.146,213.746
			c-2.55,0.851-4.32,2.141-5.74,3.32c-2.26,1.87-4.26,0.37-8.13,0.37c-1.96,0-4.46-0.61-6.66-1.311
			c0.689-1.899,0.23-4.899,0.03-6.689c-0.24-2.37,2.38-6.12,5.38-6.87s4.641-3.28,5.5-6c1.75-5.5-2.75-7.37-5.25-8.87
			s-5,0.12-6.13,2.37c-1.12,2.25-3.62,2.25-5.62,3.37c-2,1.13-4.5,1.26-4.75,3.5c-0.25,2.26,1,6,1.75,9.13
			c0.58,2.44-0.811,4.95-2.221,6.71c-1.989-0.26-3.889-0.37-4.899-0.21c-2.38,0.37-2.88-0.13-4.76-2c-1.87-1.87-6.37-7-8.37-9.37
			c-1.52-1.81-5.16-2.97-7.79-3.8c2.06-2.21,1-3.98,0.29-6.33c-0.22-0.73-0.7-1.39-1.32-1.98c1.65-2.119,4.46-4.689,8.45-8.27
			c4.87-4.38-1.38-8.5-5-10.62c-3.63-2.13-3.63-3.88-1.63-6.88s0.5-7.38,0.13-10.62c-0.38-3.26,3.37-6.26,5.5-7.5
			c2.12-1.26,4.62-4.63,6.37-7.26c1.75-2.62,4.75-4.12,10.13-1.37c5.37,2.75,6.5,1.5,6.74-1.5c0.26-3,1.13-7.25,3.76-10.37
			c1.101-1.31,1.78-1.979,1.99-2.46c2.601,0.22,4.86-0.05,8.25-0.92c4.38-1.12,9.76,0.62,13.88-0.5s10.5,1,12.75-1.38
			c1.859-1.96,3.13-4.53,4.58-6.061c0.1,1.08,0.38,2.24,1.05,3.32c1.62,2.62,4.87,7.87,4.87,11c0,3.12,0,5.12,0.87,7.5
			c0.88,2.37,2.26,3.62,0.88,12c-0.59,3.57-3.25,10.12-3.5,14.24c-0.25,4.13-0.38,9.63,0.88,14.76c1.24,5.12,2,5.62,1.62,7.5
			c-0.38,1.87,0.75,2.24,3-0.13s4.62-5.37,4.88,2c0.14,4.13-1.13,6.63-2.38,9.63s-2.88,6.62-2.88,10.62c0,2.06,0.47,4.67,0.8,7.26
			c-1.689-0.74-4.65-1.38-7.8-1.38c-4.37,0-3.74-1-6-3.63c-2.24-2.63-4.24-0.87-5.62,0.13s-0.77,4.54-2.62,4.62
			C238.336,212.906,236.615,213.246,235.146,213.746z"/>
		<text fill="#000000" stroke="none" transform="matrix(1 0 0 1 213.8311 168.0947)" font-family="'NanumGothic'" font-size="11">경북</text>
	</g>
	<g id="daegu_0041" fill="#FFFFFF" stroke="#C5C5C6" stroke-miterlimit="10" stroke-width="2">
		<path d="M220.275,187.696c2.5,1.5,7,3.37,5.25,8.87
			c-0.859,2.72-2.5,5.25-5.5,6s-5.62,4.5-5.38,6.87c0.2,1.79,0.659,4.79-0.03,6.689c-2.16-0.71-4.04-1.489-4.84-1.93
			c-0.939-0.51-3.779-1.09-6.471-1.42c1.41-1.76,2.801-4.27,2.221-6.71c-0.75-3.13-2-6.87-1.75-9.13c0.25-2.24,2.75-2.37,4.75-3.5
			c2-1.12,4.5-1.12,5.62-3.37C215.275,187.816,217.775,186.196,220.275,187.696z"/>
		<text fill="#000000" stroke="none" transform="matrix(1 0 0 1 204.8311 202.0947)" font-family="'NanumGothic'" font-size="11">대구</text>
	</g>
	<g id="ulsan_0044" fill="#FFFFFF" stroke="#C5C5C6" stroke-miterlimit="10" stroke-width="2">
		<path d="M244.735,226.347
			c-0.81-0.37-1.13-1.07-2.21-1.53c-1.75-0.75-3.38-3.5-5.5-5.25c-1.77-1.46-1.02-3.78-1.88-5.82c1.47-0.5,3.19-0.84,5.26-0.93
			c1.851-0.08,1.24-3.62,2.62-4.62s3.38-2.76,5.62-0.13c2.26,2.63,1.63,3.63,6,3.63c3.149,0,6.11,0.64,7.8,1.38
			c0.311,2.44,0.51,4.851,0.08,6.74c-0.88,3.88-2.5,7.25-5.75,10.12c-0.52,0.46-1.04,0.86-1.529,1.229
			c-1.49-2.5-5.431-4.92-8.101-4.6C245.945,226.706,245.246,226.597,244.735,226.347z"/>
		<text fill="#000000" stroke="none" transform="matrix(1 0 0 1 240.8311 222.0947)" font-family="'NanumGothic'" font-size="11">울산</text>
	</g>
	<g id="gangwon_0024" fill="#FFFFFF" stroke="#C5C5C6" stroke-miterlimit="10" stroke-width="2">
		<path d="M252.405,109.566c0.05,0.88-0.18,2.27-0.05,3.8
			v0.01c-1.45,1.53-2.721,4.101-4.58,6.061c-2.25,2.38-8.63,0.26-12.75,1.38s-9.5-0.62-13.88,0.5c-3.39,0.87-5.649,1.14-8.25,0.92
			c0.319-0.67-0.271-0.95-1.87-2.04c-2.75-1.88-2.88-1.5-3.62-3.5c-0.76-2-3.63-2.13-7.13-2.13s-4.25-1.75-6.5-4.63
			c-2.25-2.87-4.13,0-6.37,1.5c-2.26,1.5-3.26,2.13-3.88,0c-0.62-2.12-1-2.24-1.88-2.87c-0.87-0.63-1.62,2.87-2,6.37
			c-0.37,3.5-1.62,1.88-4.74,1.13c-1.76-0.42-2.53-0.49-3.36-0.17c-0.11-0.86-0.07-1.9,0.36-3.2c1-3,0.74-7-1.5-10.5
			c-2.26-3.5,2.62-6.76,5.87-10.5c3.25-3.76-5.5-3.5-8.75-2.63s-5.12-2.25-6.88-4c-1.74-1.75-1-6.25-0.87-11.75s-3-9.75-6.25-12.62
			c-3.25-2.88-9-6.5-10.38-8c-1.19-1.3-1.44-4.1-1.73-6.62c0.24-0.01,0.48-0.01,0.73-0.01c1.13,0,1.63-2.37,3.38-2.75s5,2.75,7,3.5
			s5.88-0.38,7.62-1.12c1.76-0.76,6.63,0,8.88,1.12s6.62,1.62,10,0.88c3.38-0.76,4.25-1.26,7.12-3.88c2.88-2.62,4.5-5.12,7-4.5
			s1.76,0.75,3.38,1.62c1.62,0.88,3.25-5.74,4.62-8.24c1.38-2.5,6.8-5.51,7.76,1.37c0.62,4.5,0.12,5.87,0.24,8.13
			c0.12,2.15,0.26,2.5,2.76,4.37s5.87,3.5,4,8.37c-0.33,0.85-0.76,2.76,1.5,3.76c2.24,1,6.24,5.74,7.37,9
			c0.6,1.72-0.529,3.87,6.75,9.87c2.12,1.75,6.88,6.25,8.38,9.37c1.5,3.13,3.87,9.26,6.74,11.76
			C249.525,101.196,252.146,105.066,252.405,109.566z"/>
		<text fill="#000000" stroke="none" transform="matrix(1 0 0 1 191.8311 84.0947)" font-family="'NanumGothic'" font-size="11">강원</text>
	</g>
	<g id="busan_0046" fill="#FFFFFF" stroke="#C5C5C6" stroke-miterlimit="10" stroke-width="2">
		<path d="M255.246,231.166
			c-2.57,1.91-4.621,2.931-4.721,7.65c-0.04,1.89,0.38,4.12-2.62,5.62s-10.13,6.5-12.26,6.76c-1.3,0.15-3.351,1.62-5.06,2.88
			c-0.48-1.1-1.25-2.24-2.181-2.88c-1.63-1.13-4.76-1.26-5.88,0.37s-5.88,2.5-8.75,5.25s-3.63-1.12-3.37-4.62
			c0.24-3.5,4.37-5,5.87-5.88s6.25-2.12,9.37-1c3.13,1.12,3.38-0.75,2.88-3.25s2-3.25,4.88-4.25c2.601-0.91,9.11-7.46,11.33-11.47
			c0.511,0.25,1.21,0.359,2.41,0.22C249.815,226.246,253.756,228.666,255.246,231.166z"/>
		<text fill="#000000" stroke="none" transform="matrix(1 0 0 1 230.8311 246.0947)" font-family="'NanumGothic'" font-size="11">부산</text>
	</g>
	<g id="jeju_0063" fill="#FFFFFF" stroke="#C5C5C6" stroke-miterlimit="10" stroke-width="2">
		<path d="M131.646,322.816c1,1.25,1.13,6.12-1.87,7.25
			s-5.63,4.75-13.25,5s-10.62,2.87-13.88,4.13c-3.24,1.24-10,1.24-11.5-1.38s-4.62-0.62-4.24-7.38c0.34-6.24,0-4.37,3.87-6.62
			s5.75-0.62,7.87-3c2.13-2.38,4.5-2.62,7.63-2.75c3.87-0.16,8.25,2.25,10.63-0.25c2.37-2.5,5.37-4.75,8.87-2
			S130.646,321.566,131.646,322.816z"/>
		<text fill="#000000" stroke="none" transform="matrix(1 0 0 1 100.8311 331.0947)" font-family="'NanumGothic'" font-size="11">제주</text>
	</g>
	<g id="chungbuk_0027" fill="#FFFFFF" stroke="#C5C5C6" stroke-miterlimit="10" stroke-width="2">
		<path d="M212.896,122.236
			c-0.21,0.48-0.89,1.15-1.99,2.46c-2.63,3.12-3.5,7.37-3.76,10.37c-0.24,3-1.37,4.25-6.74,1.5c-5.38-2.75-8.38-1.25-10.13,1.37
			c-1.75,2.63-4.25,6-6.37,7.26c-2.13,1.24-5.88,4.24-5.5,7.5c0.37,3.24,1.87,7.62-0.13,10.62s-2,4.75,1.63,6.88
			c3.62,2.12,9.87,6.24,5,10.62c-3.989,3.58-6.8,6.15-8.45,8.27c-1.81-1.699-4.85-2.739-6.43-3.02c-1.29-0.23-2.78,0.2-4.1,0.93
			c-0.01,0-0.01,0-0.01,0c-1.49-4.31-3.52-5.52-3.64-8.56c-0.08-2.061-0.67-3.37-1.46-4.54c1.21-4.561,1.19-8.5-0.04-11.33
			c-1.25-2.87-3.75-3.37-5.63-3.63c-1.01-0.13-2.01,0.03-2.94,0.41c-0.58-1.48-1.13-3.15-1.06-4.15c0.13-1.76-1.12-4.5-3.37-6.63
			s-0.21-2.71,2.75-5.5c4.38-4.13,1.25-5.75-0.25-6.5c-1.03-0.52-1.71-1.21-2.44-2.25c0.71-0.3,1.5-1.16,2.57-3.12
			c2.37-4.38,2.5-3.76,6-5.38s1.62-1.12,5.62-4.5s4.25-2.38,7-4c1.2-0.71,1.88-1.18,2.52-1.42c0.83-0.32,1.6-0.25,3.36,0.17
			c3.12,0.75,4.37,2.37,4.74-1.13c0.38-3.5,1.13-7,2-6.37c0.88,0.63,1.26,0.75,1.88,2.87c0.62,2.13,1.62,1.5,3.88,0
			c2.24-1.5,4.12-4.37,6.37-1.5c2.25,2.88,3,4.63,6.5,4.63s6.37,0.13,7.13,2.13c0.74,2,0.87,1.62,3.62,3.5
			C212.625,121.286,213.215,121.566,212.896,122.236z"/>
		<text fill="#000000" stroke="none" transform="matrix(1 0 0 1 158.8311 140.0947)" font-family="'NanumGothic'" font-size="11">충북</text>
	</g>
	<g id="chungnam_0031" fill="#FFFFFF" stroke="#C5C5C6" stroke-miterlimit="10" stroke-width="2">
		<path d="M147.59,145.635
			c-6.917-3.417-11.815-0.318-9.565,6.682c1.791,5.57,6.019,4.62,9.352,13.87c-0.324,1.857-0.32,3.902,0.148,5.63
			c0.88,3.25,3.25,8.12,6.5,7.88c3.25-0.26,5.5-1,6.75-5.63c0.02-0.06,0.03-0.11,0.04-0.17c0.79,1.17,1.38,2.479,1.46,4.54
			c0.12,3.04,2.15,4.25,3.64,8.56c-0.85,0.471-1.64,1.07-2.27,1.7c-1.62,1.62-3.37,1.5-5.12,1.87s-4-3.5-5.75-6.13
			c-1.75-2.62-5-2.37-6.87-1.24c-1.88,1.12-3.88,1.87-6.76,4.62c-2.87,2.75-4,1.5-3.87-0.62c0.13-2.13-1.25-2.13-1-7
			c0.25-4.88-6.25,0.24-6.75,3.5c-0.5,3.24-5.38,5.12-7.5,6c-1.62,0.67-3.46,0.45-5.42-0.07c-0.13-0.38-0.44-0.89-0.96-1.56
			c-3.12-4-6-7.25-5.74-10.63c0.24-3.37,0.5-5.74-2.5-8.5c-3-2.74-7.63-4.74-8.13-8.87s-0.75-5.25-5-8.75s-5.63-6.25-4-8
			s1.63-1.25,1.63-4s-0.5-3,2.74-5.38c3.26-2.37,6-5.87,7.63-8.5c1.63-2.62,4.25-6,7.75-4.12s3.5,2.38,5.75,4.25
			c1.61,1.34,3.21,1.59,5.46,2.27c0.9,0.271,1.9,0.601,3.04,1.101c4,1.76,4.5,3.13,7.5,4.26c3,1.12,3.87-0.26,5.63-2
			c1.74-1.76,3.74-2.38,6.24-0.5c2.5,1.87,1.88,2.74,3.63,3.24c0.96,0.28,1.7,0.74,2.56,0.38c0.73,1.04,1.41,1.73,2.44,2.25
			c1.5,0.75,4.63,2.37,0.25,6.5C149.317,144.205,148.263,144.976,147.59,145.635"/>
		<text fill="#000000" stroke="none" transform="matrix(1 0 0 1 101.3311 152.0947)" font-family="'NanumGothic'" font-size="11">충남</text>
	</g>
	<g id="daejun_0034" fill="#FFFFFF" stroke="#C5C5C6" stroke-miterlimit="10" stroke-width="2">
		<path d="M152.206,159.356v-0.01
			c0.93-0.38,1.93-0.54,2.94-0.41c1.88,0.26,4.38,0.76,5.63,3.63c1.23,2.83,1.25,6.77,0.04,11.33c-0.01,0.06-0.02,0.11-0.04,0.17
			c-1.25,4.63-3.5,5.37-6.75,5.63c-3.25,0.24-5.62-4.63-6.5-7.88s-0.12-7.62,1.38-9.75
			C149.766,160.836,150.925,159.876,152.206,159.356z"/>
		<text fill="#000000" stroke="none" transform="matrix(1 0 0 1 143.8311 173.0947)" font-family="'NanumGothic'" font-size="11">대전</text>
	</g>
	<g id="gyunggi_0010" fill="#FFFFFF" stroke="#C5C5C6" stroke-miterlimit="10" stroke-width="2">
		<path d="M147.835,134.316c-0.86,0.36-1.6-0.1-2.56-0.38
			c-1.75-0.5-1.13-1.37-3.63-3.24c-2.5-1.88-4.5-1.26-6.24,0.5c-1.76,1.74-2.63,3.12-5.63,2c-3-1.13-3.5-2.5-7.5-4.26
			c-1.14-0.5-2.14-0.83-3.04-1.101c0-1.46-0.5-2.6-0.83-4.02c-0.5-2.12-3.26-3.62-5.13-6s-1.87-5.75,0.75-8.62
			c2.32-2.55,2.4-5.689,2.12-8.979c1.25,0.189,2.34,0.189,3.13-0.28c2.13-1.24,5.13-4.74,5.13-4.74c-0.06-0.11-0.11-0.21-0.16-0.31
			c1.71-0.221,2.92,0.449,4.53,0.55c2,0.13,5,4.38,8.87,3.63c3.88-0.75,3.63-6.75,4.13-9s-2.5-8.13-4.25-9
			c-4.03-2.02-8.5,3.13-10.62,5.87c-2.13,2.76-2.38,3.13-4.88,3.5c0,0-4.38,1.63-5-3.62c-0.15-1.25-2-0.62-5-0.12
			s-5.38-3.88-3.88-6.38c1.07-1.78,1.76-3.3,2.44-4.26c4.77,2.979,7.01-2.66,7.44-5.12c0.5-2.87-3.25-5.5-1.62-7
			c1.62-1.5,4.5,1,7.5-2s-2.13-2.74-1.5-5.74c0.61-2.93,8.49-9.81,19.01-10.12c0.29,2.521,0.54,5.32,1.73,6.62
			c1.38,1.5,7.13,5.12,10.38,8c3.25,2.87,6.38,7.12,6.25,12.62s-0.87,10,0.87,11.75c1.76,1.75,3.63,4.87,6.88,4s12-1.13,8.75,2.63
			c-3.25,3.74-8.13,7-5.87,10.5c2.24,3.5,2.5,7.5,1.5,10.5c-0.43,1.3-0.47,2.34-0.36,3.2c-0.64,0.24-1.32,0.71-2.52,1.42
			c-2.75,1.62-3,0.62-7,4s-2.12,2.88-5.62,4.5s-3.63,1-6,5.38C149.335,133.156,148.545,134.017,147.835,134.316z"/>
		<text fill="#000000" stroke="none" transform="matrix(1 0 0 1 141.8311 110.0947)" font-family="'NanumGothic'" font-size="11">경기</text>
	</g>
	<g id="seoul_0001" fill="#FFFFFF" stroke="#C5C5C6" stroke-miterlimit="10" stroke-width="2">
		<path d="M137.525,81.066c1.75,0.87,4.75,6.75,4.25,9
			s-0.25,8.25-4.13,9c-3.87,0.75-6.87-3.5-8.87-3.63c-1.61-0.101-2.82-0.771-4.53-0.55c-1.2-2.16-2.22-1.94-2.22-4.45
			c2.5-0.37,2.75-0.74,4.88-3.5C129.025,84.196,133.496,79.047,137.525,81.066z"/>
		<text fill="#000000" stroke="none" transform="matrix(1 0 0 1 126.8311 94.0947)" font-family="'NanumGothic'" font-size="11">서울</text>
	</g>
	<g id="incheon_0021" fill="#FFFFFF" stroke="#C5C5C6" stroke-miterlimit="10" stroke-width="2">
		<path d="M116.146,100.217c-2.13-0.301-4.71-1.15-7-1.15
			c-6.87,0-8.5-1.63-10-4s-7.08-7.22-7.62-10.37c-1-5.88,7.25-10.26,10.5-12.63s2.95-1.63,5.88,1.63c0.97,1.08,1.86,1.851,2.68,2.36
			c-0.68,0.96-1.37,2.479-2.44,4.26c-1.5,2.5,0.88,6.88,3.88,6.38s4.85-1.13,5,0.12c0.62,5.25,5,3.62,5,3.62
			c0,2.51,1.02,2.29,2.22,4.45c0.05,0.1,0.1,0.199,0.16,0.31c0,0-3,3.5-5.13,4.74C118.485,100.406,117.396,100.406,116.146,100.217z"/>
		<path d="M108.275,105.696c2.25,2.87,1.75,7.62-0.87,8
			c-2.63,0.37-7.63,2.5-9.38,4.37s-3.75,1.75-6,0.87c-2.25-0.87-4.75,0.76-6.5,0.13s-5.38-3.13-5-5s0.62-4.13,2.5-5.75
			c2.71-2.35,5.75-1.88,8.75-1s6.63-0.25,9-1.5S106.025,102.816,108.275,105.696z"/>
		<text fill="#000000" stroke="none" transform="matrix(1 0 0 1 89.8311 89.0947)" font-family="'NanumGothic'" font-size="11">인천</text>
	</g>
	<g id="sejong_0030" fill="#FFFFFF" stroke="#C5C5C6" stroke-miterlimit="10" stroke-width="2">
		<path d="M147.377,166.187
			c-3.333-9.25-7.562-8.3-9.352-13.87c-2.25-7,2.648-10.099,9.565-6.682c-0.975,0.954-1.146,1.671,0.185,2.932
			c2.25,2.13,3.41,4.87,3.28,6.63c-0.07,1,0.97,2.67,0.97,4.15v0.01c-1,0.52-2.35,1.479-3.21,2.71
			C148.113,163.063,147.663,164.552,147.377,166.187z"/>
		<text  fill="#000000" stroke="none" transform="matrix(1 0 0 1 130.8311 155.0947)" font-family="'NanumGothic'" font-size="11">세종</text>
	</g>
</g>
</svg>
